<svg width="15" height="15" viewBox="0 0 15 15" fill="none" xmlns="http://www.w3.org/2000/svg">
<path opacity="0.8" d="M14.297 10.9771L12.1933 9.32344C11.7622 8.97898 11.1415 9.04782 10.7793 9.46126C10.3999 9.89187 10.1585 10.1847 10.0723 10.2537C9.43432 10.8909 8.10656 9.96085 6.69261 8.54838C5.27884 7.13589 4.36495 5.82688 5.00292 5.18957C5.07184 5.12072 5.36509 4.86227 5.79617 4.48332C6.21004 4.12154 6.27898 3.50145 5.93413 3.07084L4.27871 0.969426C3.98559 0.607646 3.48546 0.487135 3.07171 0.659444C2.50269 0.900583 1.48533 1.74463 1.20944 2.02013C-0.308002 3.55325 1.58879 7.03251 4.8995 10.3569C8.21022 13.6812 11.7106 15.576 13.228 14.043C13.5039 13.7673 14.3488 12.7511 14.5902 12.1827C14.7799 11.7521 14.6592 11.2698 14.2971 10.977L14.297 10.9771Z" fill="#CBD5E1"/>
</svg>
