<svg width="28" height="28" viewBox="0 0 28 28" fill="none" xmlns="http://www.w3.org/2000/svg">
<g clip-path="url(#clip0_707_2317)">
<circle opacity="0.8" cx="14" cy="14" r="14" fill="white"/>
<path d="M23.3008 9.64453C23.7227 11.1211 23.7227 14.2852 23.7227 14.2852C23.7227 14.2852 23.7227 17.4141 23.3008 18.9258C23.0898 19.7695 22.4219 20.4023 21.6133 20.6133C20.1016 21 14.125 21 14.125 21C14.125 21 8.11328 21 6.60156 20.6133C5.79297 20.4023 5.125 19.7695 4.91406 18.9258C4.49219 17.4141 4.49219 14.2852 4.49219 14.2852C4.49219 14.2852 4.49219 11.1211 4.91406 9.64453C5.125 8.80078 5.79297 8.13281 6.60156 7.92188C8.11328 7.5 14.125 7.5 14.125 7.5C14.125 7.5 20.1016 7.5 21.6133 7.92188C22.4219 8.13281 23.0898 8.80078 23.3008 9.64453ZM12.1562 17.1328L17.1484 14.2852L12.1562 11.4375V17.1328Z" fill="#001B72"/>
</g>
<defs>
<clipPath id="clip0_707_2317">
<rect width="28" height="28" fill="white"/>
</clipPath>
</defs>
</svg>
